<?xml version="1.0" encoding="UTF-8" standalone="no"?>
<svg
   xmlns:dc="http://purl.org/dc/elements/1.1/"
   xmlns:cc="http://creativecommons.org/ns#"
   xmlns:rdf="http://www.w3.org/1999/02/22-rdf-syntax-ns#"
   xmlns:svg="http://www.w3.org/2000/svg"
   xmlns="http://www.w3.org/2000/svg"
   xmlns:xlink="http://www.w3.org/1999/xlink"
   xmlns:sodipodi="http://sodipodi.sourceforge.net/DTD/sodipodi-0.dtd"
   xmlns:inkscape="http://www.inkscape.org/namespaces/inkscape"
   inkscape:export-ydpi="96.022682"
   inkscape:export-xdpi="96.022682"
   inkscape:export-filename="C:\Users\Gabriele\Projects\austin-web\art\logo.png"
   sodipodi:docname="logo.svg"
   inkscape:version="1.0 (4035a4fb49, 2020-05-01)"
   id="svg8"
   version="1.1"
   viewBox="0 0 169.82237 172.57883"
   height="652.26642"
   width="641.84833">
  <defs
     id="defs2">
    <linearGradient
       inkscape:collect="always"
       id="web">
      <stop
         style="stop-color:#8e8e8e;stop-opacity:1"
         offset="0"
         id="stop1553" />
      <stop
         style="stop-color:#c8c8c8;stop-opacity:1"
         offset="1"
         id="stop1555" />
    </linearGradient>
    <linearGradient
       id="text"
       inkscape:collect="always">
      <stop
         id="stop934"
         offset="0"
         style="stop-color:#323232;stop-opacity:1" />
      <stop
         id="stop936"
         offset="1"
         style="stop-color:#3c3c3c;stop-opacity:1" />
    </linearGradient>
    <linearGradient
       id="glasses"
       inkscape:collect="always">
      <stop
         id="stop926"
         offset="0"
         style="stop-color:#002255;stop-opacity:1;" />
      <stop
         id="stop928"
         offset="1"
         style="stop-color:#003481;stop-opacity:1" />
    </linearGradient>
    <linearGradient
       id="sticker"
       inkscape:collect="always">
      <stop
         id="stop918"
         offset="0"
         style="stop-color:#ffffff;stop-opacity:1" />
      <stop
         id="stop920"
         offset="1"
         style="stop-color:#fafafa;stop-opacity:1" />
    </linearGradient>
    <linearGradient
       id="hair-7"
       inkscape:collect="always">
      <stop
         id="stop1069"
         offset="0"
         style="stop-color:#d45500;stop-opacity:1;" />
      <stop
         id="stop1071"
         offset="1"
         style="stop-color:#ff7920;stop-opacity:1" />
    </linearGradient>
    <linearGradient
       gradientUnits="userSpaceOnUse"
       y2="111.07853"
       x2="128.79347"
       y1="173.08507"
       x1="193.08435"
       id="linearGradient1075"
       xlink:href="#hair-7"
       inkscape:collect="always" />
    <filter
       height="1.0047637"
       y="-0.0023818288"
       width="1.0048369"
       x="-0.0024184505"
       id="filter1113"
       style="color-interpolation-filters:sRGB"
       inkscape:collect="always">
      <feGaussianBlur
         id="feGaussianBlur1115"
         stdDeviation="0.16708701"
         inkscape:collect="always" />
    </filter>
    <filter
       height="1.0119091"
       y="-0.005954572"
       width="1.0120924"
       x="-0.0060461266"
       id="filter1125"
       style="color-interpolation-filters:sRGB"
       inkscape:collect="always">
      <feGaussianBlur
         id="feGaussianBlur1127"
         stdDeviation="0.41771753"
         inkscape:collect="always" />
    </filter>
    <linearGradient
       gradientUnits="userSpaceOnUse"
       y2="317.04242"
       x2="264.16757"
       y1="113.90667"
       x1="117.02784"
       id="linearGradient924"
       xlink:href="#sticker"
       inkscape:collect="always" />
    <linearGradient
       gradientUnits="userSpaceOnUse"
       y2="164.2298"
       x2="127.35613"
       y1="217.14917"
       x1="165.17487"
       id="linearGradient932"
       xlink:href="#glasses"
       inkscape:collect="always" />
    <linearGradient
       gradientUnits="userSpaceOnUse"
       y2="135.78369"
       x2="506.39212"
       y1="269.12384"
       x1="630.50562"
       id="linearGradient940"
       xlink:href="#text"
       inkscape:collect="always" />
    <linearGradient
       y2="317.04242"
       x2="264.16757"
       y1="113.90667"
       x1="117.02784"
       gradientUnits="userSpaceOnUse"
       id="linearGradient1486"
       xlink:href="#sticker"
       inkscape:collect="always" />
    <linearGradient
       y2="317.04242"
       x2="264.16757"
       y1="113.90667"
       x1="117.02784"
       gradientUnits="userSpaceOnUse"
       id="linearGradient1488"
       xlink:href="#sticker"
       inkscape:collect="always" />
    <linearGradient
       y2="317.04242"
       x2="264.16757"
       y1="113.90667"
       x1="117.02784"
       gradientUnits="userSpaceOnUse"
       id="linearGradient1490"
       xlink:href="#sticker"
       inkscape:collect="always" />
    <linearGradient
       y2="135.78369"
       x2="506.39212"
       y1="269.12384"
       x1="630.50562"
       gradientUnits="userSpaceOnUse"
       id="linearGradient1492"
       xlink:href="#text"
       inkscape:collect="always" />
    <linearGradient
       y2="135.78369"
       x2="506.39212"
       y1="269.12384"
       x1="630.50562"
       gradientUnits="userSpaceOnUse"
       id="linearGradient1494"
       xlink:href="#text"
       inkscape:collect="always" />
    <linearGradient
       y2="135.78369"
       x2="506.39212"
       y1="269.12384"
       x1="630.50562"
       gradientUnits="userSpaceOnUse"
       id="linearGradient1496"
       xlink:href="#text"
       inkscape:collect="always" />
    <radialGradient
       gradientUnits="userSpaceOnUse"
       gradientTransform="matrix(1,0,0,0.81228291,2.1166667,13.764087)"
       r="46.291187"
       fy="67.685654"
       fx="120.53818"
       cy="67.685654"
       cx="120.53818"
       id="radialGradient1524"
       xlink:href="#web"
       inkscape:collect="always" />
    <radialGradient
       gradientUnits="userSpaceOnUse"
       gradientTransform="matrix(1,0,0,0.83688411,2.1166667,8.8366584)"
       r="55.188332"
       fy="47.685883"
       fx="56.202927"
       cy="47.685883"
       cx="56.202927"
       id="radialGradient1526"
       xlink:href="#web"
       inkscape:collect="always" />
    <radialGradient
       gradientUnits="userSpaceOnUse"
       gradientTransform="matrix(1,0,0,1.2516117,2.1166667,-30.379271)"
       r="34.305012"
       fy="124.94494"
       fx="46.653549"
       cy="124.94494"
       cx="46.653549"
       id="radialGradient1528"
       xlink:href="#web"
       inkscape:collect="always" />
    <radialGradient
       gradientUnits="userSpaceOnUse"
       gradientTransform="matrix(1,0,0,1.1299854,2.1166667,-5.0287361)"
       r="37.999542"
       fy="46.828888"
       fx="43.102135"
       cy="46.828888"
       cx="43.102135"
       id="radialGradient1530"
       xlink:href="#web"
       inkscape:collect="always" />
    <radialGradient
       gradientUnits="userSpaceOnUse"
       gradientTransform="matrix(1,0,0,1.030896,2.1166667,-1.8093304)"
       r="34.505505"
       fy="92.81665"
       fx="80.218498"
       cy="92.81665"
       cx="80.218498"
       id="radialGradient1532"
       xlink:href="#web"
       inkscape:collect="always" />
    <radialGradient
       gradientUnits="userSpaceOnUse"
       gradientTransform="matrix(1,0,0,0.96612182,2.1166667,4.2250708)"
       r="59.055523"
       fy="93.474243"
       fx="80.487206"
       cy="93.474243"
       cx="80.487206"
       id="radialGradient1534"
       xlink:href="#web"
       inkscape:collect="always" />
    <radialGradient
       gradientUnits="userSpaceOnUse"
       gradientTransform="matrix(1,0,0,0.97363103,2.1166667,3.4004449)"
       r="76.578651"
       fy="88.82074"
       fx="81.263382"
       cy="88.82074"
       cx="81.263382"
       id="radialGradient1536"
       xlink:href="#web"
       inkscape:collect="always" />
    <radialGradient
       r="67.427429"
       fy="88.211929"
       fx="73.819229"
       cy="88.211929"
       cx="73.819229"
       gradientTransform="matrix(1,0,0,1.1925167,2.1166667,-15.923935)"
       gradientUnits="userSpaceOnUse"
       id="radialGradient1563"
       xlink:href="#web"
       inkscape:collect="always" />
  </defs>
  <sodipodi:namedview
     inkscape:document-rotation="0"
     fit-margin-bottom="0"
     fit-margin-right="0"
     fit-margin-left="0"
     fit-margin-top="0"
     units="px"
     inkscape:window-maximized="1"
     inkscape:window-y="595"
     inkscape:window-x="-8"
     inkscape:window-height="1057"
     inkscape:window-width="1920"
     showgrid="false"
     inkscape:current-layer="layer2"
     inkscape:document-units="mm"
     inkscape:cy="274.14367"
     inkscape:cx="241.55961"
     inkscape:zoom="0.98994948"
     inkscape:pageshadow="2"
     inkscape:pageopacity="0"
     borderopacity="1.0"
     bordercolor="#666666"
     pagecolor="#ffffff"
     id="base" />
  <metadata
     id="metadata5">
    <rdf:RDF>
      <cc:Work
         rdf:about="">
        <dc:format>image/svg+xml</dc:format>
        <dc:type
           rdf:resource="http://purl.org/dc/dcmitype/StillImage" />
        <dc:title></dc:title>
      </cc:Work>
    </rdf:RDF>
  </metadata>
  <g
     style="display:inline"
     inkscape:label="Web"
     id="layer2"
     inkscape:groupmode="layer">
    <path
       sodipodi:nodetypes="ccc"
       id="path1500"
       d="M 10.134752,9.8782272 C 8.215647,12.181154 78.786733,89.087009 80.961177,88.188199 104.33182,123.48729 123.74133,147.46886 142.16591,168.63634"
       style="fill:none;stroke:url(#radialGradient1563);stroke-width:3.175;stroke-linecap:butt;stroke-linejoin:miter;stroke-miterlimit:4;stroke-dasharray:none;stroke-opacity:1" />
    <path
       sodipodi:nodetypes="ccc"
       id="path1502"
       d="M 168.89287,104.75892 C 140.95851,103.8227 110.9878,96.098595 80.961175,88.188199 113.3703,72.759624 141.9182,54.17188 166.48744,32.328869"
       style="fill:none;stroke:url(#radialGradient1524);stroke-width:3.175;stroke-linecap:butt;stroke-linejoin:miter;stroke-miterlimit:4;stroke-dasharray:none;stroke-opacity:1" />
    <path
       sodipodi:nodetypes="ccc"
       id="path1504"
       d="M 111.96446,2.9292201 C 104.61588,33.481628 93.252443,61.166285 80.961175,88.188199 61.055307,90.578116 46.363693,94.536877 1.5821277,92.999052"
       style="fill:none;stroke:url(#radialGradient1526);stroke-width:3.175;stroke-linecap:butt;stroke-linejoin:miter;stroke-miterlimit:4;stroke-dasharray:none;stroke-opacity:1" />
    <path
       sodipodi:nodetypes="ccc"
       id="path1506"
       d="M 15.480144,153.40197 C 39.090494,133.77097 61.264333,112.4428 80.961175,88.188199 77.974412,117.69327 75.180121,146.17295 70.804938,168.63634"
       style="fill:none;stroke:url(#radialGradient1528);stroke-width:3.175;stroke-linecap:butt;stroke-linejoin:miter;stroke-miterlimit:4;stroke-dasharray:none;stroke-opacity:1" />
    <path
       sodipodi:nodetypes="ccc"
       id="path1508"
       d="M 8.263866,49.968658 C 27.718459,66.969326 54.607506,77.413051 80.961175,88.188199 74.606979,61.396173 67.463626,35.261776 65.192277,5.0673764"
       style="fill:none;stroke:url(#radialGradient1530);stroke-width:3.175;stroke-linecap:butt;stroke-linejoin:miter;stroke-miterlimit:4;stroke-dasharray:none;stroke-opacity:1" />
    <path
       sodipodi:nodetypes="ccccccccccc"
       id="path1510"
       d="m 53.699686,77.23015 c 5.430008,-2.51011 5.525239,-5.909349 6.949008,-9.087165 4.448852,-1.102917 8.815528,-2.698893 12.561668,-8.018084 6.503559,1.751514 13.007118,2.749778 19.510677,0.267269 4.243213,5.367456 7.275864,11.541954 17.639801,12.828936 -0.57118,8.000394 -0.75301,15.952118 4.27631,23.252449 -7.24928,5.046545 -11.36271,11.884995 -13.63075,19.777955 -9.813783,1.17713 -16.981742,5.52924 -23.252457,10.95805 -5.860591,-6.73975 -13.1204,-9.28185 -21.114292,-9.6217 -0.698295,-9.09678 -2.024819,-17.774748 -6.949006,-24.054268 2.454332,-5.061819 5.644549,-9.878343 4.009041,-16.303442 z"
       style="fill:none;stroke:url(#radialGradient1532);stroke-width:3.175;stroke-linecap:butt;stroke-linejoin:miter;stroke-miterlimit:4;stroke-dasharray:none;stroke-opacity:1" />
    <path
       sodipodi:nodetypes="ccccccccccc"
       id="path1512"
       d="m 45.681602,52.374083 c 9.123739,-2.35422 17.654848,-5.538122 23.252448,-12.828937 10.334422,2.119619 20.668844,2.58891 31.003263,-0.267268 8.300067,9.774166 17.981527,17.130858 29.132397,21.916101 1.25241,14.621252 4.4548,28.406797 10.69078,40.892241 -9.28203,10.49591 -16.8111,22.74478 -21.11429,38.21954 -15.19756,-2.60286 -29.878403,2.02847 -44.36676,9.35444 -10.144024,-9.84061 -22.23269,-13.19908 -34.477769,-16.03617 -2.368288,-14.8409 -7.075676,-28.01101 -14.432554,-39.288632 4.504112,-9.265343 5.670291,-18.530686 6.681739,-27.796029 6.414598,-3.786254 11.478985,-8.247614 13.630746,-14.165286 z"
       style="fill:none;stroke:url(#radialGradient1534);stroke-width:3.175;stroke-linecap:butt;stroke-linejoin:miter;stroke-miterlimit:4;stroke-dasharray:none;stroke-opacity:1" />
    <path
       sodipodi:nodetypes="ccccccccccc"
       id="path1514"
       d="m 28.309082,32.596138 c 13.469029,-3.09345 26.499992,-6.844 37.150465,-14.165285 14.254374,1.530994 28.508747,2.728428 42.763133,-1.336347 12.9115,12.231419 26.03724,23.605868 40.3577,30.201457 1.30982,19.924845 4.04653,39.136244 9.6217,56.928417 -11.86345,15.98437 -19.46173,34.10133 -25.65788,52.91936 -21.63882,-2.37541 -41.10906,1.75497 -60.670185,5.61266 C 58.723366,154.22275 42.786739,148.9394 25.369117,145.38388 22.782581,126.87657 16.814816,109.63721 8.5311357,93.266322 13.404642,80.144824 13.962802,67.742551 14.678336,55.314048 23.040816,48.218774 25.468588,40.381661 28.309082,32.596138 Z"
       style="fill:none;stroke:url(#radialGradient1536);stroke-width:3.175;stroke-linecap:butt;stroke-linejoin:miter;stroke-miterlimit:4;stroke-dasharray:none;stroke-opacity:1" />
  </g>
  <g
     style="display:inline"
     transform="translate(-74.262196,-110.15737)"
     id="layer1"
     inkscape:groupmode="layer"
     inkscape:label="Sticker">
    <g
       transform="matrix(0.70460438,-0.05988258,0.05988258,0.70460438,33.659799,65.089528)"
       id="g1016"
       style="fill:#9c9c9c;fill-opacity:1;stroke:none;stroke-width:0.529167;stroke-miterlimit:4;stroke-dasharray:none;stroke-opacity:1;filter:url(#filter1125)">
      <g
         id="g1014"
         style="fill:#9c9c9c;fill-opacity:1;stroke:none;stroke-width:0.529167;stroke-miterlimit:4;stroke-dasharray:none;stroke-opacity:1">
        <g
           id="g1012"
           style="fill:#9c9c9c;fill-opacity:1;stroke:none;stroke-width:0.529167;stroke-miterlimit:4;stroke-dasharray:none;stroke-opacity:1">
          <path
             sodipodi:type="inkscape:offset"
             inkscape:radius="-22.934278"
             inkscape:original="M 304.45703 -55.375 C 286.92061 -55.45633 269.58205 -54.248861 252.67969 -51.875 C 190.17299 -43.096061 123.77087 -19.292875 68.970703 38.308594 C 32.024196 77.143715 22.417117 124.22463 15.138672 162.94336 C 7.8602266 201.66208 6.6308594 234.11914 6.6308594 234.11914 C 5.7885538 256.17106 18.118963 276.61841 38.015625 286.16406 C 38.198102 286.86868 38.314384 287.51624 38.501953 288.22266 C 42.411143 302.94525 44.342131 316.13285 58.568359 335.91016 C 73.34431 356.45159 82.615915 356.33766 90.119141 359.27734 C 97.622366 362.21702 104.20278 363.94318 111.17969 365.51562 C 111.86732 365.67061 112.63272 365.75444 113.32617 365.9043 C 111.58944 366.21135 109.84073 366.44837 108.11523 366.81445 C 102.00673 364.0957 95.45639 362.50559 88.78125 362.12109 L 77.046875 361.48047 C 76.48994 361.45057 75.932584 361.42912 75.375 361.41602 C 73.27911 361.36502 71.19274 361.34983 69.085938 361.36133 L 69.083984 361.36133 C 62.71115 361.39623 55.985154 361.67692 48.644531 362.1582 L 49.279297 362.12109 C 36.321302 362.82159 29.972672 359.60926 7.0234375 371.08398 C -22.284497 385.78241 -32.476878 422.58401 -14.90625 450.26562 C -25.083498 456.97431 -33.554725 465.33506 -39 473.50391 C -48.695023 487.97368 -55.375 506.75273 -55.375 525.78711 C -55.375 543.36903 -51.513081 561.16629 -44.275391 577.16406 C -34.326489 599.20521 -5.9697112 626.81641 26.880859 626.81641 C 36.813963 626.81641 47.868264 624.10703 58.294922 619.49609 C 64.117835 619.94511 69.002675 619.13672 73.386719 619.13672 C 86.003544 619.13672 88.048522 619.58731 98.900391 618.77734 C 106.49003 618.40616 113.26724 618.13403 124.25977 614.70898 C 126.96272 613.8668 130.11161 612.88446 133.7207 611.17188 C 147.05834 617.92686 161.47551 621.91016 175.33398 621.91016 C 184.41065 621.91016 193.99942 619.50485 203.23828 615.63672 C 214.75083 620.97824 227.74872 622.20349 240.05664 619.10742 C 245.5513 620.50213 251.31626 621.69727 260.49414 621.69727 C 275.01949 621.69727 289.0106 617.52254 300.83984 611.34766 C 303.42868 612.70957 306.12135 613.86422 308.89258 614.80078 C 325.93022 620.48003 335.46116 619.77734 348.37695 619.77734 C 358.76143 619.77734 369.93573 619.26914 382.22266 618.33594 C 385.23277 618.08533 388.21733 617.58889 391.14648 616.85156 C 396.31631 618.97972 403.16139 620.62891 412.83008 620.62891 C 418.48468 620.62891 423.04103 620.3492 431.04883 619.9043 L 430.49219 619.93359 C 435.79761 619.69242 439.72345 619.68377 441.35742 619.74219 L 439.52539 619.64648 C 444.39178 619.9821 449.37225 620.82282 460.70898 618.12109 C 470.36738 620.11534 478.54068 620.41602 487.32617 620.41602 C 496.51378 620.41602 506.86855 619.8148 520.87891 618.77148 C 523.75303 618.53328 526.60414 618.07094 529.40625 617.38867 C 534.08198 618.12945 538.90428 618.70898 545.35352 618.70898 C 564.1054 618.70898 590.39493 609.82666 605.41602 590.59961 C 619.65479 572.37215 621.06598 547.21533 608.95508 527.50977 C 607.378 524.94407 602.86133 512.80943 602.86133 490.375 C 602.86133 471.43773 605.25337 451.17872 610.35742 429.42578 C 618.16112 396.15265 594.26085 363.82218 560.16211 361.52539 C 552.77567 361.02882 545.77488 360.76188 539.00391 360.7793 C 527.73026 360.8083 517.26265 361.42108 505.66016 364.08398 C 505.32136 364.17648 504.98346 364.27217 504.64648 364.37109 C 501.16908 364.00101 497.62345 363.74609 493.93945 363.74609 L 483.48633 363.74609 C 481.26459 363.74609 479.38268 363.56264 477.40039 363.42773 C 475.64078 360.84476 473.63494 358.19743 470.98047 355.42773 C 476.6903 352.85403 483.43125 348.23771 492.29883 335.91016 C 505.18017 318.00258 509.77615 304.18601 512.58008 291.40234 C 525.2584 284.21133 534.59063 272.312 538.55273 258.28516 C 538.55273 258.28516 545.77455 232.72606 550.65039 200.85742 C 555.52623 168.98878 561.80464 131.47591 546.39258 89.132812 C 529.5539 42.870213 498.63868 9.3463506 459.75 -14.445312 C 411.84947 -43.750366 357.04032 -55.131085 304.45898 -55.375 L 304.45703 -55.375 z "
             style="fill:#9c9c9c;fill-opacity:1;stroke:none;stroke-width:2;stroke-linecap:butt;stroke-linejoin:miter;stroke-miterlimit:4;stroke-dasharray:none;stroke-opacity:1"
             id="path1010"
             d="m 304.35156,-32.441406 c -16.41359,-0.07612 -32.6585,1.054945 -48.48242,3.277344 C 196.80138,-20.868116 136.18392,0.93270968 85.585938,54.117188 53.65117,87.684382 44.90286,128.7446 37.677734,167.17969 c -6.935145,36.89248 -8.128906,67.80664 -8.128906,67.80664 a 22.936572,22.936572 0 0 1 0,0.008 c -0.495831,12.98108 6.67436,24.87305 18.386719,30.49219 a 22.936572,22.936572 0 0 1 12.28125,14.92773 c 0.444609,1.71682 0.552391,2.30504 0.451172,1.92383 4.300214,16.19525 4.539013,23.52708 16.517578,40.17969 6.048383,8.40842 9.440638,10.72518 11.236328,11.74804 1.79569,1.02287 3.229763,0.98122 10.0625,3.65821 6.101875,2.39065 11.255915,3.75777 17.738285,5.21875 -1.14311,-0.25766 -0.42585,-0.16715 1.94726,0.3457 a 22.936572,22.936572 0 0 1 -0.85156,45 c -2.34324,0.41428 -3.82921,0.63142 -4.44336,0.76172 a 22.936572,22.936572 0 0 1 -14.085938,-1.48242 c -3.578406,-1.59267 -7.413915,-2.52453 -11.324218,-2.75 h -0.002 l -11.666016,-0.63672 c -0.318934,-0.0169 -0.638814,-0.0295 -0.960937,-0.0371 a 22.936572,22.936572 0 0 1 -0.01953,0 c -1.836576,-0.0447 -3.691544,-0.0593 -5.605468,-0.0488 a 22.936572,22.936572 0 0 1 -0.002,0 c -5.787808,0.0317 -12.055556,0.28852 -19.064453,0.74805 l -0.002,-0.0215 c -16.563175,0.81796 -13.159127,-3.27357 -32.849609,6.57032 -17.48992395,8.78046 -23.3248929,29.85801 -12.8359378,46.38281 a 22.936572,22.936572 0 0 1 -6.7402343,31.43945 c -7.7493999,5.10829 -14.2705409,11.76656 -17.6328129,16.81055 a 22.936572,22.936572 0 0 1 -0.03125,0.0449 c -7.299088,10.89385 -12.49414,25.84894 -12.49414,39.51758 0,14.22353 3.193009,28.95456 9.060547,41.92383 a 22.936572,22.936572 0 0 1 0.0098,0.0176 c 3.090393,6.84656 10.726441,17.0952 20.1503909,24.4121 9.4239503,7.31691 20.1017661,11.74219 30.1015621,11.74219 5.762694,0 14.156405,-1.83136 22.138672,-5.36133 a 22.936572,22.936572 0 0 1 11.039063,-1.89257 c 2.738757,0.21119 6.12479,-0.42579 13.328125,-0.42579 13.162866,0 13.797619,0.45019 23.80664,-0.29687 a 22.936572,22.936572 0 0 1 0.585938,-0.0352 c 7.708703,-0.377 10.892263,-0.3273 19.658203,-3.05859 2.69697,-0.84032 4.44112,-1.40752 6.45117,-2.36133 a 22.936572,22.936572 0 0 1 20.19336,0.26172 c 10.63679,5.38711 21.78811,8.26367 31.25195,8.26367 5.02496,0 11.89827,-1.50116 19.04688,-4.49414 a 22.936572,22.936572 0 0 1 18.50976,0.34961 c 6.74885,3.13129 14.35521,3.84817 21.57032,2.0332 a 22.936572,22.936572 0 0 1 11.23828,0.0137 c 4.81514,1.22222 7.60804,1.88476 14.79492,1.88476 10.13099,0 20.72036,-3.04178 29.73242,-7.74609 a 22.936572,22.936572 0 0 1 21.29102,0.0332 c 1.50537,0.79193 3.07282,1.46131 4.68359,2.00781 14.01294,4.66364 18.44965,3.78516 32.17578,3.78516 9.59836,0 20.16622,-0.47473 31.97657,-1.36914 1.75221,-0.14772 3.49017,-0.43406 5.19531,-0.86328 a 22.936572,22.936572 0 0 1 14.32812,1.0332 c 2.43706,1.00322 5.89237,2.05078 12.95313,2.05078 4.89829,0 8.88897,-0.24175 16.94726,-0.68945 v 0.0117 c 5.06859,-0.22438 8.49119,-0.25044 11.32227,-0.17774 l 0.004,-0.0742 c 0.40948,0.0282 0.44291,0.031 0.79687,0.0606 0.0668,0.002 0.21141,-0.006 0.27734,-0.004 l -0.002,0.0254 c 4.82574,0.425 5.15449,0.88622 13.2168,-1.03516 a 22.936572,22.936572 0 0 1 9.95312,-0.15234 c 7.59613,1.56843 13.71826,1.82226 21.98047,1.82226 8.1512,0 17.96031,-0.55132 31.69141,-1.57226 1.6725,-0.14037 3.33214,-0.40763 4.96289,-0.80469 a 22.936572,22.936572 0 0 1 9.01367,-0.36914 c 4.09453,0.6487 7.28405,1.03906 12.35938,1.03906 11.50959,0 32.85184,-7.59775 41.99023,-19.29492 h -0.002 c 8.38887,-10.73883 9.20875,-25.35102 2.07422,-36.96094 v -0.002 c -4.11953,-6.70234 -4.82775,-10.44108 -6.51954,-18.29688 -1.69192,-7.85644 -2.96875,-18.08938 -2.96875,-30.8457 0,-20.86798 2.63845,-42.9017 8.10157,-66.18555 v -0.002 c 4.67108,-19.92141 -8.99087,-38.40304 -29.40625,-39.7793 h -0.002 c -6.96683,-0.46832 -13.43167,-0.71107 -19.55859,-0.69531 -10.35929,0.0266 -18.66707,0.56367 -27.95508,2.66406 -6e-4,1.8e-4 -0.001,-1.7e-4 -0.002,0 a 22.936572,22.936572 0 0 1 -8.88672,0.79883 c -2.94815,-0.31375 -5.65328,-0.49609 -8.2793,-0.49609 h -10.45312 c -3.4842,0 -6.08442,-0.26505 -7.64258,-0.3711 a 22.936572,22.936572 0 0 1 -17.39648,-9.96875 c -1.29893,-1.90672 -2.42881,-3.37707 -4.02539,-5.04296 a 22.936572,22.936572 0 0 1 7.13476,-36.77735 c 2.50842,-1.13067 4.88988,-1.94382 12.125,-12.00195 11.12596,-15.46725 14.07489,-24.99057 16.49609,-36.0293 a 22.936572,22.936572 0 0 1 11.08789,-15.03516 c 7.4353,-4.21722 12.8932,-11.17619 15.2168,-19.40234 a 22.936572,22.936572 0 0 1 0,-0.002 c 0,0 6.85698,-24.32599 11.49805,-54.66016 4.91405,-32.11842 10.09968,-64.04106 -3.13867,-100.412108 C 509.87097,55.845706 483.10449,26.729505 447.78125,5.1191406 404.26936,-21.500988 353.69962,-32.212499 304.35352,-32.441406 a 22.936572,22.936572 0 0 1 -0.002,0 z"
             transform="matrix(0.26458333,0,0,0.26458333,85.190874,121.087)" />
        </g>
      </g>
    </g>
    <g
       transform="matrix(0.70460438,-0.05988258,0.05988258,0.70460438,33.520008,65.022841)"
       style="fill:url(#linearGradient924);fill-opacity:1;stroke:none;stroke-width:0.352778;stroke-miterlimit:4;stroke-dasharray:none;stroke-opacity:1;filter:url(#filter1113)"
       id="g895">
      <g
         style="fill:url(#linearGradient1490);fill-opacity:1;stroke:none;stroke-width:0.352778;stroke-miterlimit:4;stroke-dasharray:none;stroke-opacity:1"
         id="g918">
        <g
           style="fill:url(#linearGradient1488);fill-opacity:1;stroke:none;stroke-width:0.352778;stroke-miterlimit:4;stroke-dasharray:none;stroke-opacity:1"
           id="g943">
          <path
             transform="matrix(0.26458333,0,0,0.26458333,85.190874,121.087)"
             d="m 304.35156,-32.441406 c -16.41359,-0.07612 -32.6585,1.054945 -48.48242,3.277344 C 196.80138,-20.868116 136.18392,0.93270968 85.585938,54.117188 53.65117,87.684382 44.90286,128.7446 37.677734,167.17969 c -6.935145,36.89248 -8.128906,67.80664 -8.128906,67.80664 a 22.936572,22.936572 0 0 1 0,0.008 c -0.495831,12.98108 6.67436,24.87305 18.386719,30.49219 a 22.936572,22.936572 0 0 1 12.28125,14.92773 c 0.444609,1.71682 0.552391,2.30504 0.451172,1.92383 4.300214,16.19525 4.539013,23.52708 16.517578,40.17969 6.048383,8.40842 9.440638,10.72518 11.236328,11.74804 1.79569,1.02287 3.229763,0.98122 10.0625,3.65821 6.101875,2.39065 11.255915,3.75777 17.738285,5.21875 -1.14311,-0.25766 -0.42585,-0.16715 1.94726,0.3457 a 22.936572,22.936572 0 0 1 -0.85156,45 c -2.34324,0.41428 -3.82921,0.63142 -4.44336,0.76172 a 22.936572,22.936572 0 0 1 -14.085938,-1.48242 c -3.578406,-1.59267 -7.413915,-2.52453 -11.324218,-2.75 h -0.002 l -11.666016,-0.63672 c -0.318934,-0.0169 -0.638814,-0.0295 -0.960937,-0.0371 a 22.936572,22.936572 0 0 1 -0.01953,0 c -1.836576,-0.0447 -3.691544,-0.0593 -5.605468,-0.0488 a 22.936572,22.936572 0 0 1 -0.002,0 c -5.787808,0.0317 -12.055556,0.28852 -19.064453,0.74805 l -0.002,-0.0215 c -16.563175,0.81796 -13.159127,-3.27357 -32.849609,6.57032 -17.48992395,8.78046 -23.3248929,29.85801 -12.8359378,46.38281 a 22.936572,22.936572 0 0 1 -6.7402343,31.43945 c -7.7493999,5.10829 -14.2705409,11.76656 -17.6328129,16.81055 a 22.936572,22.936572 0 0 1 -0.03125,0.0449 c -7.299088,10.89385 -12.49414,25.84894 -12.49414,39.51758 0,14.22353 3.193009,28.95456 9.060547,41.92383 a 22.936572,22.936572 0 0 1 0.0098,0.0176 c 3.090393,6.84656 10.726441,17.0952 20.1503909,24.4121 9.4239503,7.31691 20.1017661,11.74219 30.1015621,11.74219 5.762694,0 14.156405,-1.83136 22.138672,-5.36133 a 22.936572,22.936572 0 0 1 11.039063,-1.89257 c 2.738757,0.21119 6.12479,-0.42579 13.328125,-0.42579 13.162866,0 13.797619,0.45019 23.80664,-0.29687 a 22.936572,22.936572 0 0 1 0.585938,-0.0352 c 7.708703,-0.377 10.892263,-0.3273 19.658203,-3.05859 2.69697,-0.84032 4.44112,-1.40752 6.45117,-2.36133 a 22.936572,22.936572 0 0 1 20.19336,0.26172 c 10.63679,5.38711 21.78811,8.26367 31.25195,8.26367 5.02496,0 11.89827,-1.50116 19.04688,-4.49414 a 22.936572,22.936572 0 0 1 18.50976,0.34961 c 6.74885,3.13129 14.35521,3.84817 21.57032,2.0332 a 22.936572,22.936572 0 0 1 11.23828,0.0137 c 4.81514,1.22222 7.60804,1.88476 14.79492,1.88476 10.13099,0 20.72036,-3.04178 29.73242,-7.74609 a 22.936572,22.936572 0 0 1 21.29102,0.0332 c 1.50537,0.79193 3.07282,1.46131 4.68359,2.00781 14.01294,4.66364 18.44965,3.78516 32.17578,3.78516 9.59836,0 20.16622,-0.47473 31.97657,-1.36914 1.75221,-0.14772 3.49017,-0.43406 5.19531,-0.86328 a 22.936572,22.936572 0 0 1 14.32812,1.0332 c 2.43706,1.00322 5.89237,2.05078 12.95313,2.05078 4.89829,0 8.88897,-0.24175 16.94726,-0.68945 v 0.0117 c 5.06859,-0.22438 8.49119,-0.25044 11.32227,-0.17774 l 0.004,-0.0742 c 0.40948,0.0282 0.44291,0.031 0.79687,0.0606 0.0668,0.002 0.21141,-0.006 0.27734,-0.004 l -0.002,0.0254 c 4.82574,0.425 5.15449,0.88622 13.2168,-1.03516 a 22.936572,22.936572 0 0 1 9.95312,-0.15234 c 7.59613,1.56843 13.71826,1.82226 21.98047,1.82226 8.1512,0 17.96031,-0.55132 31.69141,-1.57226 1.6725,-0.14037 3.33214,-0.40763 4.96289,-0.80469 a 22.936572,22.936572 0 0 1 9.01367,-0.36914 c 4.09453,0.6487 7.28405,1.03906 12.35938,1.03906 11.50959,0 32.85184,-7.59775 41.99023,-19.29492 h -0.002 c 8.38887,-10.73883 9.20875,-25.35102 2.07422,-36.96094 v -0.002 c -4.11953,-6.70234 -4.82775,-10.44108 -6.51954,-18.29688 -1.69192,-7.85644 -2.96875,-18.08938 -2.96875,-30.8457 0,-20.86798 2.63845,-42.9017 8.10157,-66.18555 v -0.002 c 4.67108,-19.92141 -8.99087,-38.40304 -29.40625,-39.7793 h -0.002 c -6.96683,-0.46832 -13.43167,-0.71107 -19.55859,-0.69531 -10.35929,0.0266 -18.66707,0.56367 -27.95508,2.66406 -6e-4,1.8e-4 -0.001,-1.7e-4 -0.002,0 a 22.936572,22.936572 0 0 1 -8.88672,0.79883 c -2.94815,-0.31375 -5.65328,-0.49609 -8.2793,-0.49609 h -10.45312 c -3.4842,0 -6.08442,-0.26505 -7.64258,-0.3711 a 22.936572,22.936572 0 0 1 -17.39648,-9.96875 c -1.29893,-1.90672 -2.42881,-3.37707 -4.02539,-5.04296 a 22.936572,22.936572 0 0 1 7.13476,-36.77735 c 2.50842,-1.13067 4.88988,-1.94382 12.125,-12.00195 11.12596,-15.46725 14.07489,-24.99057 16.49609,-36.0293 a 22.936572,22.936572 0 0 1 11.08789,-15.03516 c 7.4353,-4.21722 12.8932,-11.17619 15.2168,-19.40234 a 22.936572,22.936572 0 0 1 0,-0.002 c 0,0 6.85698,-24.32599 11.49805,-54.66016 4.91405,-32.11842 10.09968,-64.04106 -3.13867,-100.412108 C 509.87097,55.845706 483.10449,26.729505 447.78125,5.1191406 404.26936,-21.500988 353.69962,-32.212499 304.35352,-32.441406 a 22.936572,22.936572 0 0 1 -0.002,0 z"
             id="path874"
             style="fill:url(#linearGradient1486);fill-opacity:1;stroke:none;stroke-width:1.33333;stroke-linecap:butt;stroke-linejoin:miter;stroke-miterlimit:4;stroke-dasharray:none;stroke-opacity:1"
             inkscape:original="M 304.45703 -55.375 C 286.92061 -55.45633 269.58205 -54.248861 252.67969 -51.875 C 190.17299 -43.096061 123.77087 -19.292875 68.970703 38.308594 C 32.024196 77.143715 22.417117 124.22463 15.138672 162.94336 C 7.8602266 201.66208 6.6308594 234.11914 6.6308594 234.11914 C 5.7885538 256.17106 18.118963 276.61841 38.015625 286.16406 C 38.198102 286.86868 38.314384 287.51624 38.501953 288.22266 C 42.411143 302.94525 44.342131 316.13285 58.568359 335.91016 C 73.34431 356.45159 82.615915 356.33766 90.119141 359.27734 C 97.622366 362.21702 104.20278 363.94318 111.17969 365.51562 C 111.86732 365.67061 112.63272 365.75444 113.32617 365.9043 C 111.58944 366.21135 109.84073 366.44837 108.11523 366.81445 C 102.00673 364.0957 95.45639 362.50559 88.78125 362.12109 L 77.046875 361.48047 C 76.48994 361.45057 75.932584 361.42912 75.375 361.41602 C 73.27911 361.36502 71.19274 361.34983 69.085938 361.36133 L 69.083984 361.36133 C 62.71115 361.39623 55.985154 361.67692 48.644531 362.1582 L 49.279297 362.12109 C 36.321302 362.82159 29.972672 359.60926 7.0234375 371.08398 C -22.284497 385.78241 -32.476878 422.58401 -14.90625 450.26562 C -25.083498 456.97431 -33.554725 465.33506 -39 473.50391 C -48.695023 487.97368 -55.375 506.75273 -55.375 525.78711 C -55.375 543.36903 -51.513081 561.16629 -44.275391 577.16406 C -34.326489 599.20521 -5.9697112 626.81641 26.880859 626.81641 C 36.813963 626.81641 47.868264 624.10703 58.294922 619.49609 C 64.117835 619.94511 69.002675 619.13672 73.386719 619.13672 C 86.003544 619.13672 88.048522 619.58731 98.900391 618.77734 C 106.49003 618.40616 113.26724 618.13403 124.25977 614.70898 C 126.96272 613.8668 130.11161 612.88446 133.7207 611.17188 C 147.05834 617.92686 161.47551 621.91016 175.33398 621.91016 C 184.41065 621.91016 193.99942 619.50485 203.23828 615.63672 C 214.75083 620.97824 227.74872 622.20349 240.05664 619.10742 C 245.5513 620.50213 251.31626 621.69727 260.49414 621.69727 C 275.01949 621.69727 289.0106 617.52254 300.83984 611.34766 C 303.42868 612.70957 306.12135 613.86422 308.89258 614.80078 C 325.93022 620.48003 335.46116 619.77734 348.37695 619.77734 C 358.76143 619.77734 369.93573 619.26914 382.22266 618.33594 C 385.23277 618.08533 388.21733 617.58889 391.14648 616.85156 C 396.31631 618.97972 403.16139 620.62891 412.83008 620.62891 C 418.48468 620.62891 423.04103 620.3492 431.04883 619.9043 L 430.49219 619.93359 C 435.79761 619.69242 439.72345 619.68377 441.35742 619.74219 L 439.52539 619.64648 C 444.39178 619.9821 449.37225 620.82282 460.70898 618.12109 C 470.36738 620.11534 478.54068 620.41602 487.32617 620.41602 C 496.51378 620.41602 506.86855 619.8148 520.87891 618.77148 C 523.75303 618.53328 526.60414 618.07094 529.40625 617.38867 C 534.08198 618.12945 538.90428 618.70898 545.35352 618.70898 C 564.1054 618.70898 590.39493 609.82666 605.41602 590.59961 C 619.65479 572.37215 621.06598 547.21533 608.95508 527.50977 C 607.378 524.94407 602.86133 512.80943 602.86133 490.375 C 602.86133 471.43773 605.25337 451.17872 610.35742 429.42578 C 618.16112 396.15265 594.26085 363.82218 560.16211 361.52539 C 552.77567 361.02882 545.77488 360.76188 539.00391 360.7793 C 527.73026 360.8083 517.26265 361.42108 505.66016 364.08398 C 505.32136 364.17648 504.98346 364.27217 504.64648 364.37109 C 501.16908 364.00101 497.62345 363.74609 493.93945 363.74609 L 483.48633 363.74609 C 481.26459 363.74609 479.38268 363.56264 477.40039 363.42773 C 475.64078 360.84476 473.63494 358.19743 470.98047 355.42773 C 476.6903 352.85403 483.43125 348.23771 492.29883 335.91016 C 505.18017 318.00258 509.77615 304.18601 512.58008 291.40234 C 525.2584 284.21133 534.59063 272.312 538.55273 258.28516 C 538.55273 258.28516 545.77455 232.72606 550.65039 200.85742 C 555.52623 168.98878 561.80464 131.47591 546.39258 89.132812 C 529.5539 42.870213 498.63868 9.3463506 459.75 -14.445312 C 411.84947 -43.750366 357.04032 -55.131085 304.45898 -55.375 L 304.45703 -55.375 z "
             inkscape:radius="-22.934278"
             sodipodi:type="inkscape:offset" />
        </g>
      </g>
    </g>
    <g
       transform="matrix(0.70460438,-0.05988258,0.05988258,0.70460438,33.172992,66.178971)"
       id="g919">
      <path
         style="fill:none;fill-opacity:1;stroke:url(#linearGradient932);stroke-width:7.43567;stroke-linecap:butt;stroke-linejoin:miter;stroke-miterlimit:4;stroke-dasharray:none;stroke-opacity:1"
         d="m 151.86143,177.17929 c 0,0 -2.9105,20.22165 -6.24723,22.81596 -5.13363,3.99142 -30.25862,1.22247 -32.40588,-1.76264 -3.39783,-4.72366 -5.76191,-21.51111 -5.76191,-21.51111 h 102.49425 c 0,0 -2.36408,16.78745 -5.76192,21.51111 -2.14728,2.98511 -27.27238,5.75406 -32.40602,1.76264 -3.33673,-2.59431 -6.24723,-22.81596 -6.24723,-22.81596"
         id="path4504"
         inkscape:connector-curvature="0"
         sodipodi:nodetypes="cssccssc" />
      <path
         style="fill:url(#linearGradient1075);fill-opacity:1;stroke:none;stroke-width:0.279066px;stroke-linecap:butt;stroke-linejoin:miter;stroke-opacity:1"
         d="m 192.44061,147.29804 c 0,0 -5.69611,18.59606 -11.79142,23.01901 -11.43943,8.3009 -32.46928,9.26786 -46.37591,10.81895 -13.71098,1.52928 -32.06057,-0.70061 -32.06057,-0.70061 0,0 1.20388,-30.44858 12.46855,-42.28907 12.04378,-12.65944 25.33881,-17.38777 40.02973,-19.45108 15.11478,-2.12282 32.08412,-0.0722 45.10394,7.89319 6.5247,3.99174 14.18692,12.73056 16.80306,19.91814 4.31253,11.84825 -2.41203,35.78121 -2.41203,35.78121 0,0 -3.13837,-15.20507 -9.04451,-21.14021 -10.74101,-10.79375 -12.72084,-13.84953 -12.72084,-13.84953 z"
         id="path4508"
         inkscape:connector-curvature="0"
         sodipodi:nodetypes="csscsssscsc" />
    </g>
    <flowRoot
       transform="matrix(0.18642657,-0.01584393,0.01584393,0.18642657,39.858422,207.50416)"
       style="font-style:normal;font-weight:normal;font-size:40px;line-height:1.25;font-family:sans-serif;text-align:end;letter-spacing:0px;word-spacing:0px;text-anchor:end;fill:url(#linearGradient940);fill-opacity:1;stroke:none;stroke-width:4;stroke-miterlimit:4;stroke-dasharray:none;stroke-opacity:1"
       id="flowRoot841"
       xml:space="preserve"><flowRegion
         style="fill:url(#linearGradient1494);fill-opacity:1;stroke:none;stroke-width:4;stroke-miterlimit:4;stroke-dasharray:none;stroke-opacity:1"
         id="flowRegion843"><rect
           style="fill:url(#linearGradient1492);stroke:none;stroke-width:4;stroke-miterlimit:4;stroke-dasharray:none;stroke-opacity:1;fill-opacity:1"
           y="55.989796"
           x="349.51279"
           height="360.41632"
           width="841.29816"
           id="rect845" /></flowRegion><flowPara
         style="font-style:normal;font-variant:normal;font-weight:normal;font-stretch:normal;font-size:213.333px;font-family:'Action Is';-inkscape-font-specification:'Action Is';text-align:start;text-anchor:start;fill:url(#linearGradient1496);fill-opacity:1;stroke:none;stroke-width:4;stroke-miterlimit:4;stroke-dasharray:none;stroke-opacity:1"
         id="flowPara847">austin</flowPara></flowRoot>
  </g>
</svg>
